<?xml version="1.0" encoding="UTF-8"?>
<svg width="12px" height="19px" viewBox="0 0 12 19" version="1.1" xmlns="http://www.w3.org/2000/svg" xmlns:xlink="http://www.w3.org/1999/xlink">
    <!-- Generator: Sketch 51 (57462) - http://www.bohemiancoding.com/sketch -->
    <title>Icons/Move-Beige Copy 3</title>
    <desc>Created with Sketch.</desc>
    <defs></defs>
    <g id="Page-1" stroke="none" stroke-width="1" fill="none" fill-rule="evenodd" opacity="0.346819196">
        <g id="Icons/Move-Beige" transform="translate(-6.000000, -3.000000)" fill="#042655">
            <path d="M6,3 L11,3 L11,8 L6,8 L6,3 Z M6,10 L11,10 L11,15 L6,15 L6,10 Z M13,3 L18,3 L18,8 L13,8 L13,3 Z M13,10 L18,10 L18,15 L13,15 L13,10 Z M6,17 L11,17 L11,22 L6,22 L6,17 Z M13,17 L18,17 L18,22 L13,22 L13,17 Z" id="Combined-Shape"></path>
        </g>
    </g>
</svg>